<?xml version="1.0" encoding="UTF-8" standalone="no"?>
<svg xmlns="http://www.w3.org/2000/svg" xmlns:xlink="http://www.w3.org/1999/xlink" version="1.1" id="Слой_2" x="0px" y="0px" viewBox="0 0 1000 944" enable-background="new 0 0 1000 944" preserveAspectRatio="xMidYMid meet">
  <g
     transform="translate(0.000000,944.000000) scale(0.100000,-0.100000)"
     id="g44">
    <path
       id="path2"
       d="M 0 9451.5625 L 0 9440 L 5000 9440 L 10000 9440 L 10000 5755 L 10000 2070 L 9670 2070 L 9340 2070 L 9340 2035 C 9340 2001 9341.0078 2000 9378.0078 2000 C 9437.0078 1999 9498 1966.9961 9515 1925.9961 C 9534 1880.9961 9534.0078 1854.9999 9513.0078 1795 C 9500.0078 1756 9116.9961 1105.0078 9090.9961 1078.0078 C 9083.9961 1070.0078 8702.9999 1681.9962 8650 1785.9961 C 8617 1851.996 8611.9961 1904.0039 8635.9961 1939.0039 C 8658.9961 1972.0039 8726.0079 2000 8783.0078 2000 L 8830 2000 L 8830 2035 L 8830 2070 L 8425 2070 L 8020 2070 L 8020 2035 C 8020 2003 8023.0039 2000 8049.0039 2000 C 8093.0039 2000 8198.004 1941.0039 8244.0039 1889.0039 C 8266.0039 1863.0039 8417.008 1629.9958 8578.0078 1370.9961 L 8870.9961 899.00391 L 8868.0078 581.99219 C 8865.0078 283.99249 8864 262.99997 8845 230 C 8815 179.00005 8770.0038 157.99218 8684.0039 151.99219 L 8610 146.99219 L 8610 114.00391 L 8610 80 L 9010 80 L 9410 80 L 9410 114.00391 L 9410 146.99219 L 9335.9961 151.99219 C 9245.9962 157.99218 9203 180.00006 9175 235 C 9156 271.99996 9154.9922 298.0003 9151.9922 600 L 9149.0039 925 L 9405 1350 C 9681.9997 1807.9995 9708.9962 1848.0001 9770.9961 1905 C 9821.996 1950 9924.0079 2000 9968.0078 2000 L 10000 2000 L 10000 1000 L 10000 0 L 5473.0078 0.99609375 C 1627.0117 1.9960927 956.99616 3.9961058 1025.9961 15.996094 C 1370.9957 73.996036 1699.9964 285.99253 1970.9961 626.99219 C 2017.996 685.99213 2237.0001 1009.0041 2335 1164.0039 C 2343 1176.0039 2377.0001 1182 2495 1190 C 2577.9999 1196 2660.0039 1202.9922 2679.0039 1206.9922 C 2698.0039 1209.9922 2711.0078 1209.0039 2708.0078 1204.0039 C 2585.0079 996.00411 2522.9999 870.99983 2460 705 C 2439 650.00005 2419 597.0078 2415 588.00781 C 2410 574.00783 2413.0039 570 2429.0039 570 C 2445.0039 570 2459.0039 588.00787 2489.0039 648.00781 C 2569.0038 810.00765 2658.9963 928.00016 2820.9961 1085 C 2921.996 1182.9999 3202.9922 1413.9922 3236.9922 1426.9922 C 3243.9922 1429.9922 3250 1437.0078 3250 1443.0078 C 3250 1450.0078 3188.0077 1450.9961 3058.0078 1445.9961 C 2899.008 1439.9961 2863 1436.0078 2855 1423.0078 C 2772.0001 1294.0079 2697.992 1259 2476.9922 1245 L 2370 1238.0078 L 2425.9961 1346.9922 C 2692.9958 1855.9917 2927.0002 2128.0001 3170 2210 C 3232.9999 2231 3244.0003 2232 3505 2225 C 3792.9997 2218 3870.0001 2225 3980 2270 C 4005 2280 4095.0001 2303 4180 2320 C 4767.9994 2437.9999 5311.9926 2687.9925 5756.9922 3041.9922 C 5857.9921 3122.9921 6071.0001 3331.0001 6170 3445 C 6483.9997 3808.9996 6730.0002 4272.9927 6885 4791.9922 C 6956.9999 5030.9919 6995.9961 5287.9965 7020.9961 5670.9961 C 7047.9961 6082.9957 6977.0038 6577.9926 6829.0039 7006.9922 C 6648.0041 7530.9917 6366.9957 7974.9965 5950.9961 8390.9961 C 5748.9963 8591.9959 5618.9998 8700.0001 5400 8845 C 4997.0004 9112.9997 4566.9995 9283.9962 4035 9385.9961 C 3900.0001 9411.9961 3882.9997 9413.0039 3535 9414.0039 C 3162.0004 9415.0039 3060.9998 9408.0039 2845 9369.0039 C 2283.0006 9266.004 1738.9996 9014.9957 1320 8665.9961 C 637.00068 8094.9967 226.99594 7392.9952 70.996094 6520.9961 C -39.003796 5908.9967 35.992418 5158.9994 266.99219 4570 C 618.99184 3671.0009 1326.0048 2934.0035 2199.0039 2554.0039 L 2273.0078 2521.9922 L 2194.0039 2515 C 1647.0045 2468 1196.9958 2327.9998 855.99609 2100 C 614.99633 1939.0002 504.99998 1780.9998 485 1570 C 471.00001 1414.0002 514.00402 1296.0038 624.00391 1184.0039 C 813.00372 995.0041 1124.0003 946.99621 1420 1060.9961 C 1782.9996 1200.996 2013.9922 1545.0082 1991.9922 1913.0078 C 1987.9922 1965.0078 1985.9961 1970 1965.9961 1970 C 1943.9961 1970 1942.9922 1966.0077 1936.9922 1848.0078 C 1927.9922 1642.008 1871.996 1511.0077 1740.9961 1388.0078 C 1616.9962 1270.0079 1446.0037 1202.0039 1219.0039 1179.0039 C 927.0042 1150.0039 655.9921 1252.0002 566.99219 1425 C 515.99224 1523.9999 540.00399 1705.0001 619.00391 1810 C 764.00376 2001.9998 1078.0005 2143.004 1535 2219.0039 C 1864.9997 2274.0039 2137.0046 2286 2784.0039 2275 L 3223.0078 2268.0078 L 3133.0078 2244.0039 C 2683.0083 2128.004 2332.0036 1833.0073 2054.0039 1338.0078 L 1999.0039 1240 L 1909.0039 1240 L 1820 1240 L 1820 1210 L 1820 1180 L 1895 1180 L 1970 1180 L 1915.9961 1093.0078 C 1886.9961 1044.0079 1814.996 923.9999 1755.9961 825 C 1628.9962 610.00022 1545.9999 496.99597 1425 370.99609 C 1274.0002 214.99625 1121.9999 114.99605 975 75.996094 C 942.00003 66.996103 869.99995 57.007809 815 53.007812 C 528.00029 36.00783 355.99605 142.00022 315.99609 360 C 309.9961 393.99997 311.99223 396.00002 351.99219 415 C 407.99213 440.99997 440 495.99616 440 565.99609 C 440 651.99601 376.00772 721.99611 283.00781 735.99609 C 221.00787 744.99608 167.00385 727.00776 114.00391 678.00781 C 23.003997 594.0079 4.0039713 446.99596 69.003906 315.99609 C 138.00384 174.99623 319.99632 59.99605 545.99609 15.996094 C 610.99603 2.9961067 596.00752 1.9960927 308.00781 0.99609375 L 0 0 L 0 -23.105469 L 10017.715 -23.105469 L 10017.715 9451.5625 L 0 9451.5625 z M 3571.6211 9248.125 C 3689.246 9247 3808.0001 9242.5 3870 9235 C 4169.9997 9200 4477.0003 9118.0077 4760 8998.0078 C 5049.9997 8875.0079 5320 8709.9921 5320 8656.9922 C 5320 8646.9922 5250 8628.0078 5235 8633.0078 C 5211 8643.0078 5154.9961 8620.9961 5125.9961 8590.9961 L 5098.0078 8561.9922 L 5120.9961 8521.9922 C 5133.9961 8499.9922 5142 8478.9922 5140 8476.9922 C 5137 8474.9922 5049.0038 8428.996 4944.0039 8375.9961 C 4784.0041 8293.9962 4740.9921 8267.0038 4676.9922 8209.0039 C 4635.9922 8171.0039 4592.9922 8140 4581.9922 8140 C 4570.9922 8140 4552.9922 8151.9922 4541.9922 8166.9922 C 4530.9922 8181.9922 4491.0039 8215 4454.0039 8240 C 4415.0039 8265 4357.9961 8318 4320.9961 8360 C 3931.9965 8811.9995 3673.9996 9026.0002 3310 9195 L 3225.9961 9235 L 3280 9240.9961 C 3337.4999 9246.9961 3453.9962 9249.25 3571.6211 9248.125 z M 2695 9094.0039 C 2743 9101.0039 2882.9962 9091 2960.9961 9075 C 3268.9958 9010.0001 3559.9925 8839.0036 3856.9922 8549.0039 C 3974.9921 8434.004 4204.0039 8190.9961 4199.0039 8185.9961 C 4197.0039 8184.9961 4168 8170.0039 4135 8154.0039 C 4052.0001 8114.0039 3948.9922 8010.996 3926.9922 7945.9961 C 3917.9922 7918.9961 3903.0078 7888.0078 3893.0078 7878.0078 C 3878.0078 7861.0078 3396.0078 7695.9922 3378.0078 7701.9922 C 3374.0078 7703.9922 3380 7725.0039 3390 7749.0039 C 3417 7808.0038 3415.0039 7840.9961 3384.0039 7870.9961 L 3358.0078 7895 L 3421.9922 7951.9922 L 3485 8009.0039 L 3430 8065 C 3368.0001 8127.9999 3314.996 8160 3270.9961 8160 C 3220.9961 8160 3206.0038 8192.9963 3149.0039 8425.9961 C 3116.0039 8563.996 3092.9961 8638.9961 3085.9961 8635.9961 C 3079.9961 8633.9961 3009.0077 8601.9922 2928.0078 8566.9922 L 2781.9922 8501.9922 L 2770.9961 8528.0078 C 2765.9961 8543.0078 2722.9921 8671.008 2676.9922 8813.0078 L 2594.0039 9070 L 2629.0039 9080 C 2649.0039 9085 2679 9091.0039 2695 9094.0039 z M 2435.9961 9076.9922 C 2438.9961 9073.9922 2571 8668.0077 2610 8543.0078 C 2627 8486.0079 2638.9961 8431.9922 2635.9961 8421.9922 C 2631.9961 8411.9922 2609.0039 8388 2584.0039 8370 C 2528.004 8330 2457.0039 8237.0038 2419.0039 8154.0039 C 2385.0039 8081.004 2316.0078 7843.9961 2323.0078 7825.9961 C 2326.0078 7817.9961 2372.0079 7809 2458.0078 7800 L 2586.9922 7786.9922 L 2594.0039 7696.9922 C 2604.0039 7548.9923 2602.9961 7532 2575.9961 7505 C 2558.9961 7488 2442.0036 7444.996 2139.0039 7345.9961 C 1911.0041 7270.9962 1709.9961 7207.0039 1690.9961 7204.0039 L 1656.9922 7196.9922 L 1664.0039 7315.9961 C 1697.0039 7882.9955 1764.0002 8205.0003 1915 8515 C 2044.9999 8781.9997 2166.9963 8924.004 2365.9961 9039.0039 C 2403.9961 9061.0039 2434.9961 9077.9922 2435.9961 9076.9922 z M 1898.0078 8849.0039 C 1900.0078 8850.0039 1891.9961 8835.0078 1880.9961 8818.0078 C 1726.9962 8582.008 1600.996 8226.0074 1540.9961 7853.0078 C 1528.9961 7783.0079 1517.0039 7709.9961 1514.0039 7690.9961 L 1509.0039 7658.0078 L 1486.9922 7678.0078 C 1449.9922 7713.0078 1379.0039 7740 1324.0039 7740 C 1295.0039 7740 1227.9999 7731 1175 7720 C 1122.0001 7709 1065.0039 7700 1049.0039 7700 C 1012.0039 7700 1012.0039 7686.0038 1049.0039 7629.0039 C 1081.0039 7578.004 1129.9961 7543.0039 1180.9961 7534.0039 C 1199.9961 7530.0039 1233.9922 7517.9922 1256.9922 7506.9922 L 1299.0039 7486.9922 L 1268.0078 7429.0039 C 1245.0078 7384.004 1229.0039 7367.0078 1204.0039 7358.0078 C 1185.0039 7351.0078 1170 7341 1170 7335 C 1170 7318 1272.0079 7262.0039 1338.0078 7244.0039 C 1389.0078 7230.0039 1406.9922 7229.0078 1436.9922 7238.0078 C 1480.9921 7252.0078 1490 7244.0078 1490 7188.0078 C 1490 7160.0078 1484.0078 7146.9961 1468.0078 7135.9961 C 1451.0078 7124.9961 1030.9999 6982.0078 900 6943.0078 C 892.00001 6940.0078 896.00001 6948 910 6960 C 923.99999 6972 986.00397 7032.0079 1049.0039 7093.0078 L 1163.0078 7203.0078 L 1125.9961 7236.9922 C 1090.9961 7269.9922 1086.9921 7271.0039 1031.9922 7264.0039 C 982.99224 7259.0039 971.00779 7261 948.00781 7280 C 929.00783 7294 918.0039 7314.9961 914.00391 7340.9961 C 898.00392 7438.996 848.99987 7432.996 720 7315.9961 C 671.00005 7271.9961 676.99225 7253.9922 741.99219 7251.9922 C 764.99216 7250.9922 784.99219 7247.9961 786.99219 7245.9961 C 788.99219 7243.9961 770.99216 7200.0078 746.99219 7148.0078 L 703.00781 7054.0039 L 554.00391 7068.0078 C 472.00399 7076.0078 402.99609 7083.9961 400.99609 7085.9961 C 399.99609 7086.9961 422.00003 7143.9923 450 7211.9922 C 748.9997 7910.9915 1168.0006 8401.9926 1795 8786.9922 C 1849.9999 8820.9922 1897.0078 8849.0039 1898.0078 8849.0039 z M 4391.25 7814.2188 C 4393.5625 7812.625 4394.2578 7809.2539 4393.0078 7804.0039 C 4392.0078 7799.0039 4372 7742.9999 4350 7680 C 4281.0001 7487.0002 4250.9921 7450.996 4116.9922 7400.9961 C 3994.9923 7354.9961 3912.0077 7285.9999 3823.0078 7155 C 3801.0078 7122 3745.0039 7054.9921 3699.0039 7006.9922 C 3611.004 6911.9923 3610.004 6908 3679.0039 6895 C 3733.0039 6885 3760 6863.9922 3760 6831.9922 C 3760 6786.9922 3739.9999 6771 3675 6760 C 3627 6752 3608.9961 6744.0039 3585.9961 6719.0039 C 3560.9961 6690.0039 3557.9922 6681.996 3561.9922 6630.9961 C 3569.9922 6520.9962 3639.0001 6430 3715 6430 C 3762 6430 3844.0039 6457.0039 3864.0039 6479.0039 C 3888.0039 6505.0039 3899 6560.0079 3890 6608.0078 L 3883.0078 6646.9922 L 4008.0078 6750.9961 C 4077.0077 6807.996 4138.9961 6858.0078 4145.9961 6863.0078 C 4153.9961 6867.0078 4192.004 6850.0078 4244.0039 6818.0078 L 4330 6765 L 4330 6708.0078 C 4330 6625.0079 4351.004 6629.9962 4429.0039 6730.9961 C 4463.0039 6775.996 4490.0078 6813.0039 4488.0078 6814.0039 C 4486.0078 6816.0039 4458.9922 6834.9922 4426.9922 6856.9922 C 4393.9922 6880.9922 4374 6901 4380 6905 C 4395 6915 4516.0079 6845.0039 4573.0078 6794.0039 C 4630.0078 6743.004 4674 6735.0079 4690 6773.0078 C 4695 6785.0078 4706 6848.0079 4715 6913.0078 C 4735 7066.0077 4785.0078 7240 4808.0078 7240 C 4812.0078 7240 4834.0078 7202 4858.0078 7155 L 4899.0039 7070.9961 L 4845.9961 7016.9922 C 4758.9962 6929.9923 4748.004 6847.9961 4819.0039 6805.9961 C 4858.0039 6783.9961 4912.004 6783 4964.0039 6805 C 4985.0039 6814 5003.9961 6820.0078 5005.9961 6818.0078 C 5007.9961 6816.0078 5024.0078 6774 5043.0078 6725 L 5076.9922 6635 L 4955.9961 6590.9961 C 4843.9962 6549.9961 4827.9999 6547.0078 4740 6548.0078 C 4680.0001 6549.0078 4628.0078 6543.0039 4598.0078 6534.0039 C 4518.0079 6508.0039 4452.9999 6511.0039 4380 6544.0039 C 4298.0001 6581.0039 4217.0077 6583.9922 4113.0078 6551.9922 C 4028.0079 6525.9922 3843.0078 6431.0078 3783.0078 6383.0078 C 3727.0079 6339.0079 3691.0039 6262.9999 3684.0039 6175 C 3677.0039 6104.0001 3636 6006.0078 3615 6013.0078 C 3610 6015.0078 3501.0038 6339.9965 3374.0039 6735.9961 C 3246.004 7130.9957 3138 7463.0078 3135 7473.0078 C 3130 7483.0078 3132 7490 3140 7490 C 3147 7490 3297.0041 7537.0001 3474.0039 7595 C 3651.0037 7652.9999 3798.9922 7700 3801.9922 7700 C 3805.9922 7700 3803 7681.0039 3795 7659.0039 C 3775 7603.004 3776 7571.0078 3800 7533.0078 C 3830 7483.0079 3852.004 7476 3899.0039 7500 C 3958.0038 7530 3986.9961 7526.0039 4025.9961 7484.0039 L 4060 7449.0039 L 4091.9922 7485.9961 C 4165.9921 7568.996 4176 7621.9962 4135 7720.9961 C 4122 7754.9961 4112.9961 7785.9961 4115.9961 7790.9961 C 4126.9961 7809.9961 4159.004 7798.0039 4204.0039 7759.0039 C 4256.0039 7713.004 4255.0001 7712.0079 4335 7783.0078 C 4362.75 7807.7578 4384.3125 7819 4391.25 7814.2188 z M 2969.0039 7416.9922 C 3034.0038 7232.9924 3436.9922 5963.0039 3431.9922 5959.0039 C 3427.9922 5955.0039 3199.9997 5878.9999 2925 5790 C 2650.0003 5701.0001 2314.996 5593.0039 2180.9961 5549.0039 C 2046.9962 5505.004 1934 5472.9922 1930 5476.9922 C 1926 5480.9922 1899.9922 5584.0001 1871.9922 5705 C 1760.9923 6176.9995 1734 6333.0043 1700 6689.0039 C 1677 6927.0037 1676.0078 6978.9922 1693.0078 7001.9922 C 1704.0078 7014.9922 2066.0005 7139.9923 2525 7286.9922 C 2569 7300.9922 2611.0078 7315.0078 2618.0078 7318.0078 C 2626.0078 7321.0078 2630 7308.9922 2630 7276.9922 C 2630 7216.9922 2652.0079 7190.9921 2748.0078 7141.9922 L 2826.9922 7100.9961 L 2895.9961 7265 C 2933.9961 7354.9999 2967.0039 7423.9922 2969.0039 7416.9922 z M 5006.9336 7268.0078 C 5018.3789 7266.0059 5051.504 7250.3711 5119.0039 7215.9961 L 5224.0039 7163.0078 L 5148.0078 7138.0078 L 5071.9922 7111.9922 L 5044.0039 7179.0039 C 5029.0039 7215.0039 5011.9922 7251.0078 5006.9922 7258.0078 C 5000.9922 7265.5078 5000.0664 7269.209 5006.9336 7268.0078 z M 6711.9922 6780 C 6720.9922 6780 6729 6749.992 6770 6571.9922 C 6836.9999 6282.9925 6865.9922 5981.9997 6856.9922 5695 C 6847.9922 5452.0002 6811 5168.996 6780 5110.9961 C 6775 5099.9961 6738.0078 5081.9922 6693.0078 5066.9922 C 6528.008 5012.9922 5974.0078 4832.9961 5953.0078 4825.9961 C 5936.0078 4819.9961 5931 4822.0078 5935 4833.0078 C 5938 4840.0078 5932 4955.0079 5920 5088.0078 C 5889 5451.0074 5890.0079 5476.0079 5933.0078 5563.0078 C 5953.0078 5603.0078 5994.9961 5667 6025.9961 5705 C 6104.996 5801.9999 6123.9922 5848.004 6116.9922 5924.0039 C 6111.9922 5983.0038 6094 6040 6080 6040 C 6076 6040 6029.0039 6002 5974.0039 5955 C 5920.004 5908 5870.0078 5872.0039 5863.0078 5874.0039 C 5857.0078 5877.0039 5789.0077 5919.9961 5713.0078 5970.9961 C 5559.008 6073.996 5464.0039 6162.9923 5424.0039 6241.9922 C 5395.0039 6298.9921 5357.9961 6400 5365.9961 6400 C 5387.9961 6400 5475.0002 6337.9999 5645 6200 C 5754.9999 6112.0001 5860.9961 6026.0039 5880.9961 6009.0039 L 5918.0078 5980 L 6055.9961 6135 C 6132.996 6219.9999 6197 6290 6200 6290 C 6203 6289 6246 6234.9999 6295 6170 C 6345 6104.0001 6387 6051 6390 6050 C 6393 6050 6465.0001 6214.0002 6550 6415 C 6634.9999 6615.9998 6707.9922 6780 6711.9922 6780 z M 1043.0078 6750 C 1066.0078 6750 1064.9921 6748.9998 941.99219 6580 C 829.9923 6427.0002 841.99597 6431.9961 715.99609 6470.9961 C 642.99617 6492.9961 588.99218 6535.004 576.99219 6579.0039 C 572.99219 6598.0039 592.00411 6606.0001 799.00391 6675 C 923.00378 6716 1033.0078 6750 1043.0078 6750 z M 1510 6450 C 1519 6450 1749.9922 5366.0078 1741.9922 5358.0078 C 1735.9922 5353.0078 411.00389 4920 399.00391 4920 C 397.00391 4920 397 4978.0001 400 5050 C 405.99999 5199.9999 401.9923 5194.9961 516.99219 5230.9961 C 603.9921 5257.9961 635.00003 5251.996 665 5200.9961 C 718.99995 5109.9962 781.99613 5083.0001 815.99609 5135 C 831.99608 5159 832.00389 5163.0079 814.00391 5203.0078 C 784.00394 5269.0077 790.00005 5334.9962 835 5415.9961 C 912.99992 5556.996 930.00394 5598.0001 959.00391 5705 C 987.00388 5810.9999 989.99614 5816 1035.9961 5855 C 1062.9961 5877 1136.9923 5949.0001 1201.9922 6015 L 1320 6134.0039 L 1369.0039 6131.9922 C 1413.0039 6129.9922 1421.0039 6133 1444.0039 6160 C 1481.0039 6204 1503 6291 1480 6305 C 1475 6308 1458.9961 6303 1445.9961 6295 C 1420.9961 6279 1418.9999 6279.004 1365 6324.0039 L 1309.0039 6369.0039 L 1334.0039 6385 C 1348.0039 6394 1384.9922 6407.9922 1416.9922 6416.9922 C 1448.9922 6424.9922 1482 6435.9961 1490 6440.9961 C 1498 6444.9961 1507 6450 1510 6450 z M 3493.0078 5790 C 3497.0078 5790 3490.0078 5771.0078 3478.0078 5748.0078 C 3460.0078 5713.0078 3454.9961 5689.9999 3455.9961 5625 C 3456.9961 5555.0001 3461.9961 5530.9999 3500.9961 5430 C 3525.9961 5367.0001 3550.9961 5302 3555.9961 5285 C 3562.9961 5264 3580 5248.0039 3615 5229.0039 C 3649 5211.0039 3671.9922 5190.0078 3686.9922 5163.0078 C 3699.9922 5141.0078 3750 4995.0038 3800 4839.0039 C 3850 4683.0041 3918 4473.996 3950 4375.9961 C 3983 4276.9962 4007.9922 4195.0039 4006.9922 4194.0039 C 4005.9922 4193.0039 3849.9998 4141.9999 3660 4080 C 3470.0002 4019.0001 3193.9999 3928.996 3045 3880.9961 L 2775 3793.0078 L 2769.0039 4044.0039 C 2764.0039 4302.0036 2759.0078 4333.0079 2718.0078 4393.0078 C 2688.0078 4435.0078 2634.9999 4457.0039 2530 4469.0039 C 2337.0002 4493.0039 2316.996 4505.008 2250.9961 4643.0078 C 2180.9962 4788.0077 1986.9922 5291 1996.9922 5300 C 2000.9922 5305 2158.0002 5358.0079 2345 5418.0078 C 2531.9998 5479.0078 2865.0002 5587.004 3085 5659.0039 C 3304.9998 5730.0038 3488.0078 5789 3493.0078 5790 z M 1820.9961 5240.9961 C 1823.9961 5237.9961 1866 5128.9999 1915 5000 C 1963 4871.0001 2010.9961 4746.0078 2020.9961 4723.0078 C 2030.9961 4699.0078 2037.9961 4680 2035.9961 4680 C 2033.9961 4680 1957.0038 4706.9961 1864.0039 4740.9961 C 1650.0041 4817.996 1620.9998 4820.9961 1460 4780.9961 C 1285.0002 4736.9961 1144 4691.0078 1115 4668.0078 C 1101 4657.0078 1064.0039 4617.0039 1034.0039 4579.0039 C 969.00397 4498.004 950.99606 4484.9961 915.99609 4500.9961 C 885.99612 4514.9961 680.0078 4750 663.00781 4790 C 643.00783 4837 659.99225 4865.0078 721.99219 4888.0078 C 750.99216 4899.0078 944.00021 4963.0001 1150 5030 C 1355.9998 5096.9999 1590.0001 5173.0039 1670 5199.0039 C 1749.9999 5226.0039 1817.9961 5243.9961 1820.9961 5240.9961 z M 4475 5155 C 4492 5153 4547.0079 5148.0039 4598.0078 5144.0039 C 4648.0078 5140.0039 4696.0039 5131.9961 4704.0039 5125.9961 C 4712.0039 5119.9961 4730.0039 5078.0078 4744.0039 5033.0078 C 4775.0039 4940.0079 4827.0001 4853.9999 4890 4795 C 4913 4773 4944.0039 4730 4959.0039 4700 C 4993.0039 4633.0001 5034.0039 4529.9922 5029.0039 4526.9922 C 5019.0039 4519.9922 4177.9961 4248.9922 4175.9961 4251.9922 C 4169.9961 4258.9922 3922.0039 5034.9922 3924.0039 5036.9922 C 3926.0039 5038.9922 3957 5032.0078 3995 5023.0078 C 4052.9999 5009.0078 4072.9922 5008.0078 4131.9922 5018.0078 C 4205.9921 5031.0078 4312.0001 5075.0079 4395 5128.0078 C 4432 5152.0078 4453 5159 4475 5155 z M 6740 4886.9922 C 6740 4874.9922 6636.0039 4578.9999 6604.0039 4500 C 6551.004 4368.0001 6416.9999 4104.9921 6340 3981.9922 C 6101.0002 3601.9926 5807.0074 3296.9919 5423.0078 3031.9922 L 5320 2960.9961 L 5355.9961 3030.9961 C 5447.996 3214.9959 5523.004 3435.9925 5584.0039 3701.9922 C 5589.0039 3723.9922 5603.004 3736.0039 5654.0039 3759.0039 C 5729.0038 3793.0039 5764 3834.004 5790 3919.0039 C 5821 4018.0038 5878.0039 4286.9923 5899.0039 4431.9922 C 5910.0039 4506.9921 5926.0039 4582.0039 5934.0039 4599.0039 C 5943.0039 4615.0039 5967.9922 4637.0039 5991.9922 4649.0039 C 6015.9922 4660.0039 6184.0002 4717.0001 6365 4775 C 6546.9998 4833.9999 6700 4883 6705 4885 C 6719 4890 6740 4890.9922 6740 4886.9922 z M 440 4620.9961 C 440 4631.9961 524.00004 4614 560 4595 C 578.99998 4586 642.00006 4545 700 4505 C 828.99987 4416.0001 865.00791 4398.0039 963.00781 4369.0039 L 1039.0039 4346.9922 L 1055 4295 C 1078 4215.0001 1075.0039 4166.9961 1044.0039 4130.9961 C 1022.0039 4103.9961 1019 4094.0078 1025 4058.0078 C 1035 4003.0079 1074.0078 3891.996 1103.0078 3840.9961 C 1179.0077 3706.9962 1308.9963 3591.9999 1495.9961 3490 C 1558.996 3456 1610 3424.9961 1610 3420.9961 C 1610 3416.9961 1550.9999 3394.9922 1480 3371.9922 C 1376.0001 3338.9922 1344.0039 3332.9961 1324.0039 3340.9961 C 1309.0039 3345.9961 1248.9999 3400.0001 1190 3460 C 942.00025 3710.9997 734.00374 4002.9925 569.00391 4331.9922 C 511.00396 4446.9921 440 4606.9961 440 4620.9961 z M 5055.9961 4349.0039 C 5061.9961 4350.0039 5086 4306.0078 5110 4253.0078 C 5216.9999 4008.0081 5258.9962 3933.996 5335.9961 3850.9961 C 5377.9961 3804.9961 5410 3761.0039 5410 3749.0039 C 5410 3738.0039 5398.0039 3682.9921 5384.0039 3626.9922 C 5267.004 3162.9927 5103.0036 2898.9959 4809.0039 2695.9961 L 4700.9961 2621.9922 L 4605.9961 2913.0078 C 4345.9964 3716.007 4236.9961 4056.0078 4235.9961 4068.0078 C 4234.9961 4078.0078 4366.0003 4125.0001 4640 4215 C 4862.9998 4287.9999 5049.9961 4349.0039 5055.9961 4349.0039 z M 4060 4023.0078 C 4065 4018.0078 4528.9961 2586.0078 4525.9961 2583.0078 C 4524.9961 2582.0078 4491.9921 2576 4451.9922 2570 C 4277.9924 2543 3979.0076 2618.9923 3753.0078 2746.9922 C 3550.008 2862.9921 3382.0075 3010.9926 3023.0078 3391.9922 L 2810 3619.0039 L 3226.9922 3755 C 3456.992 3829.9999 3737.0001 3922.0039 3850 3959.0039 C 3962.9999 3996.0039 4057 4025.0078 4060 4023.0078 z M 2653.6328 3514.6289 C 2658.0078 3517.5039 2664.0078 3517.0039 2673.0078 3514.0039 C 2706.0078 3504.0039 2721.004 3488.9998 2864.0039 3320 C 3124.0036 3012.0003 3237.0003 2908.0076 3520 2718.0078 C 3714.9998 2586.0079 3834.0078 2500.0039 3828.0078 2494.0039 C 3825.0078 2492.0039 3713.0038 2497 3579.0039 2505 C 3445.004 2513 3251.0077 2524.0039 3148.0078 2529.0039 L 2961.9922 2539.0039 L 2823.0078 2589.0039 C 2654.008 2651.0038 2602.9922 2677.0039 2581.9922 2709.0039 C 2558.9922 2744.0039 2563.0039 2801.004 2594.0039 2864.0039 L 2620.9961 2918.0078 L 2595.9961 2955 L 2570.9961 2991.9922 L 2595 3024.0039 C 2646.9999 3092.0038 2664.0039 3148.0001 2664.0039 3255 C 2665.0039 3309.9999 2658.9961 3379.9961 2650.9961 3410.9961 C 2643.9961 3442.9961 2640.0039 3480 2644.0039 3495 C 2646.5039 3505.5 2649.2578 3511.7539 2653.6328 3514.6289 z M 1700 3259.0039 C 1707 3260.0039 1800.9961 2977.9922 1795.9961 2971.9922 C 1792.9961 2969.9922 1721.9921 3016.9922 1636.9922 3076.9922 L 1483.0078 3186.9922 L 1589.0039 3221.9922 C 1647.0038 3241.9922 1697 3259.0039 1700 3259.0039 z M 3554.0039 2110.9961 L 3220 1288.0078 C 3037.0002 835.00827 2868 424.99995 2845 375 C 2773.0001 221.00015 2739.0077 185.99997 2633.0078 160 C 2593.0079 150.00001 2590 146.99997 2590 115 L 2590 80 L 2890 80 L 3190 80 L 3190 114.00391 C 3190 147.00387 3189.996 147.00782 3125.9961 158.00781 C 3046.9962 171.0078 3012.9961 187.00785 2985.9961 223.00781 C 2967.9961 248.00779 2967.0078 255.00396 2978.0078 309.00391 C 2985.0078 342.00387 3024.0039 450.99229 3064.0039 551.99219 L 3138.0078 735 L 3500 735 L 3861.9922 735 L 3920.9961 590 C 4062.996 245.00035 4057.0076 179.99997 3888.0078 155 C 3842.0079 148.00001 3840 147.00387 3840 114.00391 L 3840 80 L 4215 80 L 4590 80 L 4590 114.00391 C 4590 146.00387 4588.0078 148.00391 4548.0078 154.00391 C 4446.0079 170.00389 4378.9921 223.99621 4321.9922 335.99609 C 4303.9922 370.99606 4006.0036 1115.0008 3684.0039 1930 C 3617.004 2098.9998 3613.0039 2105.0078 3584.0039 2108.0078 L 3554.0039 2110.9961 z M 5780 2110 C 5754 2110 5749 2105 5740 2070 C 5728 2027 5698.9922 2000 5661.9922 2000 C 5648.9922 2000 5599.9921 2015.9961 5551.9922 2035.9961 C 5503.9922 2055.9961 5431.9961 2080.9961 5390.9961 2090.9961 C 5311.9962 2110.9961 5180.996 2115.0039 5100.9961 2099.0039 C 4979.9962 2076.0039 4830.9999 1970.9999 4760 1860 C 4662.0001 1707.0002 4657.0079 1494.9998 4748.0078 1340 C 4822.0077 1215.0001 4919.0003 1136.9998 5260 930 C 5485.9998 793.00014 5559.0039 741.99604 5599.0039 690.99609 C 5734.0038 520.99626 5690.0076 300.00772 5503.0078 208.00781 C 5437.0079 176.00784 5432.9999 175 5305 175 C 5156.0001 176 5105.9921 190.00789 4996.9922 263.00781 C 4869.9923 349.00773 4823.996 436.99245 4765.9961 701.99219 C 4760.9961 724.99216 4754 730 4730 730 L 4700 730 L 4700 385 L 4700 40 L 4730 40 C 4756 40 4760 45.007851 4770 83.007812 C 4783 132.00776 4802.9961 150 4840.9961 150 C 4855.9961 150 4939.9923 126.99997 5026.9922 100 C 5163.9921 56.000044 5199.9962 48.007808 5295.9961 43.007812 C 5380.996 39.007817 5424.0079 41.003919 5483.0078 54.003906 C 5871.0074 141.00382 6057.9959 557.99251 5850.9961 876.99219 C 5779.9962 986.99208 5667.9997 1071.0002 5355 1250 C 5116.0002 1386.9999 4979.0039 1495.0079 4939.0039 1578.0078 C 4876.004 1708.0077 4940.0001 1871.0079 5085 1948.0078 C 5131 1973.0078 5145.0001 1975 5245 1975 C 5370.9999 1974 5418.9923 1959.0077 5526.9922 1883.0078 C 5645.9921 1800.0079 5706.0039 1682.0076 5744.0039 1458.0078 C 5750.0039 1424.0078 5754 1420 5780 1420 L 5810 1420 L 5810 1765 L 5810 2110 L 5780 2110 z M 5930 2070 L 5930 2035.9961 L 5930 2003.0078 L 5993.0078 1998.0078 C 6088.0077 1990.0078 6175.0001 1944.9921 6245 1866.9922 L 6300 1805 L 6298.0078 1035 C 6295.0078 281.00075 6295 263.99997 6275 230 C 6245 179.00005 6200.0038 157.99218 6114.0039 151.99219 L 6040 146.99219 L 6040 114.00391 L 6040 80 L 6370 80 L 6700 80 L 6700 115 L 6700 150 L 6638.0078 150.99609 C 6532.0079 151.99609 6468.9961 187.99226 6450.9961 256.99219 C 6439.9961 297.99215 6429.9961 1634.9922 6440.9961 1621.9922 C 6443.9961 1617.9922 6721.0003 1263.0074 7055 833.00781 C 7605.9994 123.00852 7664.9961 50 7690.9961 50 L 7719.0039 50 L 7721.9922 966.99219 C 7724.9922 1867.9913 7725 1886 7745 1920 C 7774 1970 7837.9923 2000 7916.9922 2000 L 7980 2000 L 7980 2035 L 7980 2070 L 7650 2070 L 7320 2070 L 7320 2035.9961 L 7320 2003.0078 L 7399.0039 1998.0078 C 7487.0038 1993.0078 7536.9961 1970.0078 7560.9961 1923.0078 C 7571.9961 1900.0078 7576 1780.0073 7580 1248.0078 C 7583 892.00817 7582.0039 604.00782 7579.0039 608.00781 C 7576.0039 612.00781 7503.0077 705.00011 7418.0078 815 C 7333.0079 924.99989 7185.0038 1116.0001 7089.0039 1240 C 6993.004 1363.9999 6808.996 1601.008 6680.9961 1768.0078 L 6446.9922 2070 L 6188.0078 2070 L 5930 2070 z M 3504.0039 1639.0039 C 3506.0039 1637.0039 3578.0079 1461.0076 3663.0078 1248.0078 L 3818.0078 860 L 3503.0078 860 C 3255.0081 860 3189.0078 863.00782 3193.0078 873.00781 C 3297.0077 1121.0076 3500 1622.9922 3500 1631.9922 C 3500 1637.9922 3502.0039 1641.0039 3504.0039 1639.0039 z " />
  </g>
</svg>
