<?xml version="1.0" encoding="UTF-8" standalone="no"?>
<svg xmlns="http://www.w3.org/2000/svg" xmlns:xlink="http://www.w3.org/1999/xlink" version="1.1" id="Слой_2" x="0px" y="0px" viewBox="0 0 1300 969" enable-background="new 0 0 1300 969" xml:space="preserve">
<path d="m 191.813,245.996 -8.825,-46.141 87.926,37.704 c -5.617,11.828 -10.129,24.043 -13.394,36.593 l -65.707,-28.156" />
<path d="m 191.813,245.996 v 0" />
<path d="m 915.371,61.3086 -72.285,69.4144 c 28.406,19.445 52.461,42.265 70.977,67.668 0.253,0.339 0.488,0.73 0.742,1.082 l 175.825,182.55 5.21,5.629 22.95,23.899 L 904.082,617.668 855.82,567.438 802.598,511.973 766.34,474.203 697.969,403 l 0.039,-0.039 -5.918,-6.164 19.941,-19.09 92.52,-90.215 c -20.254,-19.16 -45.977,-35.578 -75.02,-47.668 -0.019,-0.008 -0.039,-0.008 -0.058,-0.019 l -61.055,58.613 -59.941,57.578 -40.789,38.652 96.921,100.961 48.672,50.711 52.91,55.082 132.188,137.676 347.991,-333.066 z m 44.844,292.6094 c 1.57,10.301 2.461,20.492 2.461,30.285 0,57.703 -26.121,118.531 -70.028,163.902 l 11.434,11.911 177.848,-170.778 -147.262,-153.34 c 15.645,36.36 25.762,81.211 25.762,113.379 0,1.368 -0.086,2.95 -0.215,4.641 z m -147.852,-58.613 -83.945,81.765 71.105,74.063 c 25.301,-21.086 44,-46.285 53.907,-73.973 -0.617,-4.527 -1.387,-9.074 -2.5,-13.625 -5.989,-24.519 -18.996,-47.441 -38.567,-68.23 z M 798.418,173.066 c -12.969,-6.589 -26.73,-12.578 -40.906,-17.812 -48.723,-17.988 -101.25,-27.109 -156.125,-27.109 -77.797,0 -151.438,18.496 -212.942,53.496 -33.992,19.355 -62.55,42.824 -84.867,69.746 -8.539,10.324 -16.078,21.054 -22.426,31.933 -13.109,22.364 -21.757,45.918 -25.703,70.012 -1.777,10.75 -2.636,20.859 -2.636,30.871 0,37.262 10.683,73.133 31.781,106.731 l 56.578,-57.266 c -3.848,-13.137 -5.789,-26.488 -5.789,-39.758 0,-11.031 1.375,-22.269 4.086,-33.39 3.847,-15.715 10.476,-31.086 19.691,-45.715 7.285,-11.582 16.168,-22.617 26.383,-32.801 28.074,-28.039 66.172,-50.109 110.176,-63.82 33.39,-10.411 68.945,-15.684 105.668,-15.684 29.644,0 58.945,3.516 87.09,10.488 16.027,4.004 31.484,9.082 45.937,15.078 33.301,13.868 62.609,33.184 84.774,55.879 22.511,23.086 37.335,48.848 44.093,76.582 2.735,11.192 4.121,22.426 4.121,33.383 0,31.512 -11.875,67.184 -31.218,94.449 l 48.14,50.149 c 41.203,-42.949 65.617,-100.168 65.617,-154.305 0,-9.949 -0.878,-20.336 -2.617,-30.871 -7.429,-45.402 -31.531,-88.652 -69.687,-125.07 -22.356,-21.367 -49.004,-39.93 -79.219,-55.196 z M 242.891,351.27 c 0.07,-0.411 0.191,-0.801 0.257,-1.211 -0.152,-1.61 -0.261,-3.114 -0.261,-4.317 0,-17 10.426,-57.363 14.633,-73.465 0.003,-0.019 0.015,-0.039 0.019,-0.058 l -55.277,-23.633 52.715,274.746 21.648,-21.418 c -24.184,-36.859 -36.531,-76.426 -36.531,-117.711 0,-10.711 0.914,-21.488 2.797,-32.933 z M 371.91,318.809 c -0.621,0.937 -1.387,1.828 -1.984,2.773 -8.488,13.469 -14.574,27.598 -18.102,41.953 -0.363,1.516 -0.515,3.028 -0.828,4.543 4.102,14.457 10.598,28.289 19.152,41.317 l 67.2,-66.485 z m 255.004,-38.184 57.754,-55.449 c -26.926,-6.59 -54.934,-9.961 -83.281,-9.961 -35.442,0 -69.715,5.09 -101.883,15.117 -4.293,1.34 -8.481,2.813 -12.649,4.309 l 128,57.566 z M 62.6719,51.7773 186.742,742.961 363.867,575.098 419.355,522.52 461.754,482.336 562.41,386.359 v -43.781 l 42.793,-41.101 -133.664,-60.852 c -30.199,12.793 -56.496,29.902 -77.004,50.391 -0.469,0.468 -0.847,0.988 -1.312,1.457 L 495.793,340.371 254.57,565 l -4.757,4.789 -5.754,-31.105 -56.969,-296.914 -8.824,-46.145 15.101,6.477 0.071,0.359 77.484,33.203 c 12.109,-25.535 29.473,-49.266 51.109,-70.476 z M 664.016,510.305 560.52,402.5 469.602,488.672 c 39.05,16.976 84.906,26.816 134.015,26.816 20.813,0 41.024,-1.843 60.399,-5.183 z m -74.547,140.449 c 56.144,0 131.215,-14.414 178.871,-31.797 l -2.149,-2.242 -52.91,-55.078 -0.176,-0.18 c -33.261,11.117 -70.339,17.383 -109.488,17.383 -68.328,0 -130.371,-18.985 -176.508,-49.883 l -0.683,0.645 -55.492,52.582 -4.957,4.699 c 60.664,36.609 139.355,63.871 223.492,63.871 z M 1254.32,414.16 v 0.133 l -0.07,-0.07 L 898.379,754.395 778.672,629.719 c -49.461,19.129 -127.227,34.511 -186.336,34.511 -86.004,0 -174.648,-29.367 -236.563,-67.679 l -166.918,158.176 0.032,0.175 -0.196,-0.019 -0.113,0.109 -0.023,-0.125 -59.7,-6.25 L 0,43.0273 l 59.9805,-6.25 0.0351,0.2071 271.9104,118.9336 c 0.437,-0.391 0.847,-0.801 1.289,-1.191 64.691,-57.0707 161.801,-93.4184 270.402,-93.4184 75.367,0 145.133,17.5391 202.438,47.3164 L 915.371,3.65234 1254.32,356.66 v 57.414 l 0.04,0.047 -0.04,0.039" />
<path d="m 956.191,19.3867 h -6.64 v 2.3906 h 16.125 v -2.3906 h -6.653 V 0 h -2.832 v 19.3867" />
<path d="m 985.82,9.57031 c -0.144,3.02739 -0.343,6.69139 -0.304,9.39449 h -0.106 c -0.742,-2.5468 -1.652,-5.2656 -2.742,-8.25 L 978.809,0.128906 h -2.121 L 973.152,10.4961 c -1.035,3.0898 -1.902,5.8906 -2.519,8.4687 h -0.067 c -0.07,-2.7031 -0.226,-6.3671 -0.421,-9.61714 L 969.578,0 h -2.683 l 1.523,21.7773 h 3.574 l 3.723,-10.539 c 0.906,-2.68361 1.648,-5.06642 2.207,-7.32033 h 0.086 c 0.555,2.1875 1.336,4.57812 2.293,7.32033 l 3.879,10.539 h 3.593 L 989.133,0 h -2.746 l -0.567,9.57031" />
</svg>