<?xml version="1.0" encoding="utf-8"?>
<!-- Generator: Adobe Illustrator 18.0.0, SVG Export Plug-In . SVG Version: 6.00 Build 0)  -->
<!DOCTYPE svg PUBLIC "-//W3C//DTD SVG 1.1//EN" "http://www.w3.org/Graphics/SVG/1.1/DTD/svg11.dtd">
<svg xmlns="http://www.w3.org/2000/svg" xmlns:xlink="http://www.w3.org/1999/xlink" version="1.1" id="Слой_2" x="0px" y="0px" viewBox="0 0 1140 850" enable-background="new 0 0 1140 850" xml:space="preserve">
<path stroke-width="2" stroke-miterlimit="10" d="M7.6,515.3c1.7-1,4.4-2.5,6.6-3.5  c2.6-1.1,5.1-1.3,7.6-2.9c4.5-2.9,8.4-5.8,12.4-9.3c2.7-2.4,6-2.9,8.9-5.2c1.9-1.5,3.6-3.5,5.6-4.8c0.9-0.6,1.7-0.7,2.6-1.6  c0.9-0.9,1.5-2.1,2.4-3.1c1.4-1.6,3-3.9,4.8-4.9c1.7-1,2.7-1.2,4.1-2.8c1.1-1.2,2.8-3.3,4.6-2.1c0.4,0.1,0.3-0.2,0.8,0.1  c-0.5-0.3-0.3-0.4-0.5-0.7c2.2,0.1,4.7-2.2,5.2-4.1c2.6,0.1,4.5-1.6,6.9-2.5c2.6-0.9,4.9-1.1,7.3-2.5c2.2-1.3,4.6-2.1,6.8-3.1  c1.9-0.9,1-1.2,1.4-3c0.2-1,1-2.1,1.5-3c1-2.2,2.2-4.6,4.1-6.3c1.5-1.4,5-2.9,5.2-4.9c0.1-0.9-0.9-1.7-0.4-3.1  c0.3-1.1,1.1-2.2,1.7-3.2c0.8-1.2,1.1-1.6,2.2-2.3c1-0.7,2.3-0.8,3.2-1.7c0.8,0.6,2.9,1.4,3.7,0.7c1-0.7,0.2-1.9,1.1-3.1  c1.6-2.2,5.1-3.2,7.4-4.3c2.2-1.1,13.9-7.1,11.8-10.6c-1.6-0.4-2.8-4.7-2.4-6c0.3-1.1,1.5-1.5,1.5-2.7c0-1.6-1.7-1.8-2.5-2.7  c-1-1.1-0.6-2.3-1-3.6c-0.2-0.5-0.5-0.9-0.8-1.3c-0.8-1.2-1.1-0.8-2-1.4c-1.5-1-1.5-0.4-0.8-2.5c0.5-1.5,1.2-2.1,1.1-3.7  c0-1.8-1.8-4.8-3.1-6c-1.1-1-2.2-0.6-3.5-0.9c-1.4-0.4-2.3-0.7-3.6-1.6c-1.9-1.4-3.7-2.6-5.5-4.1c-2.6-2.1-2.2-3.1-1-5.7  c0.9-1.9,1.8-4.5,1.5-6.8c-0.3-2.5-3-2.7-5.3-3.5c-1.1-0.4-2.2-0.6-3.4-1.1c-2.1-1-1.7-0.6-0.6-2.4c0.5-0.8,1.4-1.9,1.7-2.8  c0.4-1.3-0.4-2.2-0.3-3.2c0.3-2.5,3-2.6,1.9-5.7c-0.5-1.3-1-1.6-1-3.2c0-1.4,0.4-2.2,0.7-3.4c1.2-4.7,0-9.5-3-13.2  c0.3,0.2,3.7-1.7,3.7-1.7c-0.2,0.1,9.4-1.9,14.2-3.1c2.8-0.7,5.2-2.8,8-3.7c2.6-0.9,5.1-2,7.6-2.9c5.3-1.7,27.6-6.7,33.2-7.2  c3.1-0.3,6.2-0.8,9.3-1.1c2.8-0.3,13.9-0.3,16.6-0.7c2.8-0.4,5.7-0.4,8.6-0.3c5.8,0,11.9-1.2,17.6-0.3c5.5,0.9,11.1-1.9,16.6-0.4  c2.3,0.6,4.6,1.3,6.9,1.7c2.6,0.5,5.3,0,8,0.3c2.5,0.4,4.8,1.1,7.6,1.1c2.7,0,4.8,0.6,7.3,1c2.5,0.5,4.3,1.2,6.9,1.4  c2.5,0.2,5,0.6,7.5,0.8c2,0.2,5.4-0.2,7.3,0.7c2.1,1,3.8,2.5,6.3,3.4c1.4,4.1,6.6,6.6,10.2,9.2c2.2,1.6,4,2.3,6.4,3.3  c2.2,0.9,4.5,2.7,7,3c2.6,0.4,5-0.6,7-1.7c1.1-0.6,1.6-1.2,3-1.4c1.6-0.2,2.4-0.3,3.8-0.9c4.6-2,9.8-3.8,14.9-4.2  c3.5-0.3,6.5,0.7,9.7,1c3.6,0.4,7-1.4,10.4-1.7c2.1-0.2,2.8,0.5,4.5,1c1.8,0.5,2.7-0.2,4.4-0.8c1.6-0.5,3.1-0.8,4.9-0.6  c1.4,0.1,13.6,2.6,15.9,2.4c3-0.3,4.6,2,7.5,1c2.5-0.9,3.9-2.8,5.9-4.4c2.5-1.9,5.4-0.5,8.3-1c1.3-0.3,1.9-1.1,3.1-1.6  c1.3-0.6,2.6-0.4,4.1-0.4c3.1,0,4.7-0.8,7-3c2.2-2.1,2.7-3,5.8-3.2c1.4-0.1,1.2,0.2,2.5-1c0.9-0.9,1.5-1.9,2.1-3  c2-3.8,4.8-8.9,8.9-10.9c2.7-1.3,5.6-2.1,8-4c2-1.6,3.9-4.6,6.1-5.8c1.1-0.6,2.3-0.2,3.4-0.9c0.8-0.5,1.4-1.9,2.2-2.6  c2.2-1.8,4.9-2.1,7.4-3.3c2.5-1.1,4-2.5,7-2.3c2.8,0.2,4.8,2.4,7.6,2.4c3.5,0.1,12.4-3.7,14.4-6.3c2.9-3.7,2.5-10.3,2.9-14.8  c0.5-5.6-1.3-11.5-1.7-17c-0.3-2.9,0.3-5.8,0-8.6c-0.2-2.4-1.8-5.5-2.9-7.6c-1.1-2.1-4.9-9.4-7.8-9.1c-0.5-3.3,6.1-6.9,8.3-4.8  c1,0.9,0,1.7,1.6,2.1c1,0.2,2.2-0.3,2.9-1c1.8-1.8,1.1-2.3,4.1-2.5c1.8-0.1,3.2-0.8,4.8-1.8c0.8-0.5,1.6-1.2,1.8-2  c0.5-1.8-0.9-1.8-1.5-3c-0.7-1.5,0.5-11.5-3.6-8.8c-1.4-1.5-4.9-2.3-7-3c-2.8-0.9-5.1,0.9-8.2,0.5c-0.3-1-0.9-1.7-1.1-2.7  c-0.2-0.9,0.3-1.1-0.7-2.2c-0.7-0.8-1.4-0.7-2-1.7c-0.6-1.1-0.2-2.1-0.4-3.4c-0.2-1.1-0.8-1.8-1.3-2.8c-0.4-0.8-0.4-2.5-0.8-3  c-1.4-1.6-4.3-0.7-6.1-1.5c0.4-2.5-2.7-4-2.4-6.4c0.3-2,2.1-4.7,2.7-6.6c1.2-3.7,2.9-11.4,7.3-12.5c2.6-0.6,5.7-0.3,8.3-0.7  c2.9-0.5,4.9-1,6.9-3c2.1-2.2,3.9-2.4,4.2-5.6c0.2-3.1-0.1-4.9,2.8-6.2c2.6-1.2,5.1-1.8,7.9-2.5c0.6-2,4-3.2,5.6-4.3  c2-1.3,4.3-3.2,6.6-3.6c1.3-0.2,2.3,0.4,3.4,0.4c1.5,0.1,1.5-0.1,2.8-1c2.2-1.5,4.4-3.1,6.6-4.3c2-1.1,3.9-2.5,5.8-3.8  c1.6-1.2,4.5-2.7,5.7-4.3c1.1-1.6,1.5-4.1,2.1-5.9c0.8-2.3,2.5-4.9,2.7-7.3l2.4-2.1c1.5-2.9,52.3-52.3,54.4-52.8  c1.3-0.4,2.1,0.3,3.5-0.7c0.9-0.7,1.5-1.6,2.4-2.4c2.2-1.8,4.8-1.4,6.8-3.5c0.8-0.9,1.6-1.7,1.8-2.8c0.4-1.8-0.3-2,1.3-3.2  c1.8-1.3,4.7-2,6.7-3.3c2.5-1.6,5.1-2.5,7.9-3.6c2.2-0.9,6-2,7-3.6c0.8-1.3,0.4-1.7,1.9-2.6c1.1-0.7,2.5-0.7,3.5-1.4  c1.2-0.9,1-1.5,2.5-2c1.2-0.4,2.9,0.1,4.1-0.4c1.4-0.5,3.2-2.3,4.6-3.1c0.9-0.5,2.6-1.1,3.1-1.9c0.6-0.9,0-1.9,1-2.5  c0.5-0.3,2.7-0.1,3.2-0.3c1-0.2,2-0.6,3.1-0.8c1.8-0.3,4.3-0.9,6.1-0.8c0.6-3.5,4.1-2.5,6.3-3.5c2.6-1.1,3.3-3.2,6.1-1.9  c0.5,0.2,0.9,0.8,1.5,1c0.6,0.2,1.5,0.1,2.1,0.3c0.4,0.1,0.8,0.9,1.1,1c0.7,0.1,1.5-0.3,2-0.3c2.5,0.3,0.7,1.2,2.2,2.4  c0.6,0.5,3.6,0.1,4.4,0c-0.1-0.3,0.2-0.9,0.1-1.3c1.9-0.5,5.6-1,7.5,0c0,0.3,0.1,0.6,0.1,0.9c1.3,0.3,2.2-0.7,3.4-1  c1.5-0.4,27.1,1.4,30.1,1.4c6,0,57.5-0.1,68.8-1c8.7-0.7,52.8-0.8,61.5-1.4c8.7-0.6,16.5-3,25.3-2c-1.4,2-3.2,4.9-1.4,7.2  c0.8,1,1.8,1.1,2.4,2.4c0.7,1.5,0.1,2.5-0.3,3.9c-0.3,1.4-0.3,2.6-0.4,4.1c-0.3,2.4-1.2,1.5-2.4,3.2c-1.1,1.5-0.3,7.7-2.4,7.6  c-0.3,3.9,1.9,9.9,6.1,11.4c0.3,3-1.4,3.9-2,6.5c-0.3,1.3-0.1,2.3-0.6,3.6c-0.7,1.6-1.5,2.3-1.5,4.1c0,1.1,0.7,2.5,0.7,3.8  c0,1.5-0.4,2.7-0.8,4.1c-0.7,2.5-2.2,4.3-2.7,7c-0.2,1.2-0.4,2.4-0.4,3.8c0.1,1.9,0.5,1.9,1.4,3.4c1.2,2.1-0.3,4,1,6.6  c1.1,2,3.2,3.3,4.4,5.3c1.4,2.2,1.8,5.2,2.9,7.4c1,1.9,2.6,3.4,2.7,5.6c0,1.3-0.3,2.2-0.3,3.5c0,1.5,0.5,1.8,0.8,3  c0.3,1.4,0.5,1-0.1,2.5c-0.4,0.9-1.2,1.6-1.6,2.5c-1.2,2.2-0.6,4.7-0.8,7.1c-3-0.4-3.3,0.8-3.8,3.5c-0.3,1.8-0.9,5.5,1.3,6.3  c0.7,2.1,0.1,4.7,0.8,6.8c0.6,1.9,3,3.2,2.7,5.6c-0.2,1.2-0.8,1.6-1.6,2.5c-0.3,0.4-0.6,1.2-1,1.4c-0.7,0.4-0.8-0.4-1.5-0.1  c-1.7,0.7-3.5,3.5-3.5,5.5c-2.7,0.3-4.5,2.5-5.1,4.9c-0.4,1.4-0.6,8.7-2.3,7.6c-0.9,1.7-1,3.6-0.8,5.5c0.2,2,0.2,2.6-0.7,4.5  c-1.5,3.1-2,6.3-1.7,10c2.7,0.5,2.7,2.7,2.7,4.9c0,2.3,0.4,4.3,0.7,6.6c0.6,4-0.3,9.7,2,13.1c1,1.5,2.8,2.6,3.3,4.4  c0.5,1.9-1,3.5-0.4,5.5c0.3,0.8,1.6,0.8,0.7,2.3c-0.4,0.7-1.9,0.8-2.4,1.7c-1,1.5-1.7,5.2,1.2,4.8c-0.3,2.6,3.9,4.1,3.8,6.8  c-0.2,0-0.4,0.1-0.6,0.1c-0.5,1-0.9,2.1-1.4,3l-0.3,3.5c0.3,0.6-1.9,2.3-2.7,3.2c-1.1,1.2-1.9,2.4-2.2,4.1c-0.4,2,0.2,3-0.9,4.9  c-0.8,1.3-2.2,2.6-2.8,4.1c-0.9,2.2,0.9,2.2,1,4.1c0,0.9-0.9,1.3-1,2.1c-0.2,1.1,0.3,1.7,0.2,2.7c-0.1,1-1.1,0.2-0.6,1.8  c0.2,0.7,1.1,1.4,1.6,1.8c0.8,0.6,3.6,2.4,4.5,2.3c0.2-1.1,1.3-1.6,1.5-2.7c0.3-1.4-0.7-2.4-0.3-3.8c2.9,0.6,0.7-2.5,1.4-3.4  c0.5-0.7,4.1-0.6,4.9-0.7c2.8-0.2,6,0.9,6.2,4.1c0.1,1.4-1.6,2.1-0.6,3.7c0.7,1,2.6,1.2,3.5,1.7c0.9,0.6,1.9,1.4,2.6,2.3  c1.2,1.5,0.7,1.9,0.8,3.7c0.7,0.2,0.8,0.6,1.3,1c-3.2,1.1-1,12.8-1,15.6c0,5.8-0.3,11.4-0.3,17.3c0,11.4-1.8,22.9-1.7,34.2  c0,10.4-1.2,21.2-2.1,31.5c-0.4,5.2-0.3,10.6-0.3,15.9c0,2.6,0.2,5.3,0,8c-0.2,2.2-1.2,5.9-0.1,7.9c-0.2,0-0.4,0.1-0.6,0.1  c-1.3,2.3,0.3,4.2-0.1,6.5c-0.3-0.1-0.9,0.2-1.3,0.1c-0.5,2.1,1.4,12.2,3.7,12.1c0.1,0.2,0.1,0.4,0.1,0.6l-1,2.4l-33.9,119.3  l3.5,7.3l-9.3,140.4l10,15.6l-34.9,21.1l9.7,16.6v8.3h-2.8l-0.7,4.8c0,0-9.3,3.5-12.1,8c-2.8,4.5-3.1,8.3-3.1,8.3s-2.1,0-3.1,2.1  c-1,2.1,0.3,5.9,2.1,6.6c1.7,0.7,0.7,2.8,2.4,2.8s3.5-4.2,4.5-6.2s3.5-3.5,3.5-5.2s0.7-2.8,3.8-1.4c3.1,1.4,4.5,1.7,5.9,0.7  c1.4-1,0.7-5.2,2.8-6.2c2.1-1,3.5,0.7,4.8-0.7c1.4-1.4,3.5-3.1,6.9-2.4c3.5,0.7,5.9,1.4,7.6-0.7c1.7-2.1,2.4-5.9,2.4-5.9  s2.4,1.4,3.8,2.1c1.4,0.7,3.8,0.3,3.8,0.3l0.3,1.7c0,0,1.7,1.7,3.5,0.3c1.7-1.4,1.4-5.9,1.4-5.9s3.8,5.2,5.9,5.5s6.9-1.4,11.4,1  c4.5,2.4,5.5,3.8,9.3,1.4s12.5-7.6,13.1-9.3c0.7-1.7,6.9-1.7,9-1c2.1,0.7,17.3-2.4,22.8-1.4c5.5,1,13.5,1.4,22.5-1.4  c9-2.8,12.1,0.7,19-2.1c6.9-2.8,6.9-5.5,10.7-8c3.8-2.4,6.6-1.7,8.3-3.1c1.7-1.4,2.1-5.2,3.5-6.2c1.4-1,4.8,0.3,6.9-1.4  c2.1-1.7,5.2-5.5,6.9-6.9c1.7-1.4,3.5-2.1,3.5-2.1s-2.1,5.2,0,8c2.1,2.8,6.9,3.8,6.9,3.8s-3.8,5.2,0,6.6s5.2-1,6.9-0.3  c1.7,0.7,4.2,3.5,5.5,3.1s2.8-4.5,4.2-4.2c1.4,0.3,3.5,0,3.5,2.8s1.4,6.2,3.5,6.9c2.1,0.7,4.5-0.3,4.8-1.4c0.3-1,3.1,1,4.2-0.3  c1-1.4,0-3.1,0-3.1l5.5-0.7c2.8-3.1,5.5-1.7,6.9-4.5c1.4-2.8,0-4.2,3.8-5.2c3.8-1,4.8,1,6.6,1s4.8-0.3,4.8-0.3s-0.3,4.2-4.1,5.2  c-3.8,1-8,2.4-8,2.4s-59.1,28.7-72.6,34.2c-13.5,5.5-48.4,17.6-57.1,22.1s-22.1,9-35.3,14.5c-13.1,5.5-20.4,6.2-24.6,6.9  s-5.5,0-5.5,0l-1.7-3.8c0,0-28,9-33.2,10c-5.2,1-6.9,0.7-8.3,0c-1.4-0.7-16.3,2.3-20.1,0.7s-12.5,1.4-19,2.8c-6.6,1.4-19,2.8-20.8,0  c-1.7-2.8-4.2-2.4-6.9-1.4c-2.8,1-5.2,4.2-8.3,6.6c-3.1,2.4-8,3.5-11.1,5.2c-3.1,1.7-6.6,0-6.2,0s3.1-1.7,2.8-3.8s-1-3.5,1.4-4.5  c2.4-1,3.8,0.7,4.2-1.7s-1.7-2.8,0-5.5c1.7-2.8-3.1-4.5-0.3-6.9c2.8-2.4,2.1-1.4,7.3-1.7c5.2-0.3,9.3-2.8,10.7-1  c1.4,1.7,1.8,5.2,2.8,9c1,3.8,4.8,4.5,5.9,3.1c1-1.4,2.4-2.8-0.3-3.8c-2.8-1-4.5-4.2-2.8-7.3c1.7-3.1,2.1-7.6,2.1-9.3  s0.3-9.7,2.4-14.5c2.1-4.8,5.9-10.4,8-14.5c2.1-4.2,3.5-11.8,4.8-14.5c1.4-2.8,3.1-14.5,3.1-14.5l-112.7-66.1l-0.3-2.4  c0-2-1.7-1.3-2.8-2.1c-1.5-1-0.6-2.3-2.1-3.1c-1.6-0.9-2.9-0.4-2.8-3.1c0.1-1.4,1.5-2.5-0.1-3.7c-1.8-1.4-1.6,0.5-2.7,0.9  c-0.6,0.2-3.8,0-4.4-0.3c-1.7-0.7-0.7-2.5-2.1-3.4c-1.3-0.9-2.9,0.3-3.1,1.6c-1.8,0.6-2.4-1.2-3.8-1.9c-2.1-1.1-2.9,0.5-4.7,0.7  c-2.9,0.3,0.2-1.6-0.9-3.1c-0.4-0.6-1.5-0.2-1.9-0.8c-0.7-1,0.7-1.4-0.4-2.4c-0.3-0.3-1.9-0.4-2.4-0.7c-0.5-0.3-0.6-1.1-1.5-1.3  c-2.1-0.6-3,2-5.1,1.3c-2.5-0.8-1.1-2.7-1.4-4.2c-0.4-2.1-1.8-2.1-3.8-2.1c-0.4-1.8,1-1.6-0.1-3.3c-0.7-1.1-2.3-1-1.4-2.8  c-0.2,0-0.4-0.1-0.6-0.1c0.2-2.6-1.9-4.1-3.1-5.9c-0.6-1-0.8-1.8-1.7-2.8c-0.8-0.9-2.2-1.1-1.7-2.6c0.4,0.3,0.9,0.1,1.3,0.3  c-0.2-0.4,0-1.2-0.2-1.6c0.6,0.2,1-0.1,1.6,0.3c0.2-2.1,0.4-4,0.4-6.2c0-1.3-0.2-1.8-0.6-2.9c-0.4-0.9-1.2-1.1-1.1-2.3  c0.2,0,0.4-0.1,0.6-0.1c0.4-2.2,1.2-4.9-1.6-5.5c-0.1-0.4-0.1-0.9,0-1.3c0.6,0.4,1,0.1,1.6,0.3c0.2-2.7,1.3-10.3-1.3-11.7  c-1.4-0.8-5.1,0.5-5.6-0.7c-0.6-1.7,2.4-4.3,3.8-3.9c0.4-0.9,1.3-2.5,0.5-3.4c-0.8-1.1-2.1-0.2-3.2-0.3c-0.7-1.4-0.3-2.7-2.4-2.4  c-0.1-1.2-0.2-3-0.8-4c-1.4-0.1-2.8,0.2-4-0.5c0.1-0.7-0.2-1-0.5-1.6c-1.1,0.5-1.6,1.6-3,1.3c-0.1-1-0.1-2.1,0.3-3  c-1.5-0.6-3.7,0.7-2.4,2.4l-2.1-2.4c-1.5-0.3-2.6,0.6-2.8,2c-1.4,0.3-2.6,0-2.8-1.6c-1.7-0.4-1.6,2.6-3.3,0.5  c-1.3-1.5,0.6-2.6,0.6-4c-1.1,0.1-2.7,0-2.7-1.4c0-1.1,1.6-1.1,1.3-2.7c-0.1-0.5-0.9-1-1.1-1.4c-0.3-0.7-0.1-1.4-0.3-2.1  c-0.4-1.7-0.6-2.1-2.4-2.5c-0.1-1.9,0.7-2.4-1.8-2.4c-1.7,0-2,0.8-3.1-0.7c-0.2-0.2-0.2-1.3-0.4-1.7c-0.3-0.5-1-0.9-1.4-1.4  c-0.8-0.9-2-2.3,0.4-2.2c0.3-1.4-1.3-2-2.4-2.4l-1.7-0.3L5.2,566.5v-50.1L7.6,515.3z"/>
</svg>
