<?xml version="1.0" encoding="UTF-8" standalone="no"?>
<svg version="1.0" xmlns="http://www.w3.org/2000/svg"
 viewBox="0 0 326.000000 299.000000"
 preserveAspectRatio="xMidYMid meet">
  <g
     transform="translate(0.000000,299.000000) scale(0.100000,-0.100000)"
     id="g466">
    <path
       id="path438"
       d="M 0 2990 L 0 1495 L 0 0 L 970 0 L 1940 0 L 1936.3477 3.6523438 L 5.1757812 3.6523438 L 5.1757812 2984.8242 L 1232.7539 2984.8242 C 1096.8982 2985.5136 1216.0413 2988.7054 968.00781 2989.0039 L 0 2990 z M 1232.7539 2984.8242 C 1552.0624 2983.2039 1903.4051 2982.7168 1855 2975 C 1720.0001 2953 1604.0038 2902.9921 1474.0039 2811.9922 C 1389.004 2751.9922 1248.0077 2611.9921 1173.0078 2511.9922 C 1140.0078 2467.9922 1104 2432 1080 2420 C 1059 2409 988.00775 2368.0039 923.00781 2329.0039 C 602.00813 2135.0041 281.99199 1888.9959 81.992188 1680.9961 L 9.0039062 1605 L 50 1568.0078 C 133.99992 1492.0079 292.99231 1402.9961 416.99219 1360.9961 C 492.99211 1334.9961 699.99624 1303.0039 845.99609 1294.0039 L 956.99219 1286.9922 L 995.99609 1190.9961 C 1040.996 1080.9962 1098.0039 989.99998 1134.0039 970 C 1153.0039 960.00001 1188.9923 959.00782 1281.9922 963.00781 C 1498.992 974.0078 1577.9924 1007.008 1771.9922 1173.0078 C 2012.9919 1379.0076 2107.9922 1447.9961 2166.9922 1460.9961 C 2215.9921 1471.9961 2223.0078 1472.0078 2248.0078 1453.0078 C 2283.0078 1427.0078 2310 1374.0039 2310 1329.0039 C 2310 1271.004 2272.0039 1162.0038 2224.0039 1079.0039 L 2180 1004.0039 L 2040 986.99219 C 1590.0005 931.99224 1235.0076 809.99202 1033.0078 641.99219 C 999.00785 612.99222 990 599.00388 990 574.00391 C 990 516.00396 1006.008 513.00784 1158.0078 543.00781 C 1416.0076 593.00776 1621.0002 603.99997 1795 575 C 1952.9998 549.00003 1945.0078 555.00383 1948.0078 474.00391 C 1950.0078 433.00395 1940 338.996 1925 245.99609 C 1895 56.996283 1895 44.999975 1920 20 L 1936.3477 3.6523438 L 2047.3828 3.6523438 C 1994.74 6.2617842 1992.246 10.576444 2005.9961 19.003906 C 2042.9961 41.003884 2141.0079 152.99227 2198.0078 236.99219 C 2255.0078 321.9921 2323.0039 461.00011 2359.0039 570 C 2390.0039 662.99991 2393.004 667.00009 2484.0039 760 C 2675.0037 954.9998 2811.004 1171.0002 2884.0039 1395 C 2907.0039 1465.9999 2910 1489.9923 2910 1621.9922 C 2910 1764.992 2910.9961 1770 2930.9961 1770 C 2941.9961 1770 2948 1775 2945 1780 C 2941 1786 2968.9922 1789.9961 3021.9922 1790.9961 C 3248.992 1793.9961 3250 1794.0079 3250 1858.0078 C 3250 1909.0078 3227.0039 1953.004 3174.0039 1999.0039 C 3123.004 2043.0039 2976.9921 2118.9961 2901.9922 2140.9961 C 2863.9922 2151.9961 2855.0078 2161.0039 2833.0078 2204.0039 C 2732.0079 2406.0037 2492.9958 2573.004 2190.9961 2654.0039 C 2081.9962 2683.0039 2064.0039 2692.9922 2044.0039 2731.9922 C 2023.0039 2771.9921 2031.0078 2824.0079 2068.0078 2893.0078 C 2083.0078 2922.0078 2096.0078 2947.9961 2098.0078 2950.9961 C 2102.0078 2958.9961 2025.9999 2979.0078 1975 2983.0078 C 1967.0078 2983.7344 2140.0117 2984.1456 2201.3281 2984.8242 L 1232.7539 2984.8242 z M 2201.3281 2984.8242 L 3260 2984.8242 L 3260 2990 L 2598.0078 2988.0078 C 2365.6063 2987.3711 2308.7959 2986.0136 2201.3281 2984.8242 z M 3260 2984.8242 L 3260 1495 L 3260 3.6523438 L 3260.6445 3.6523438 L 3260.6445 2984.8242 L 3260 2984.8242 z M 3260 3.6523438 L 2047.3828 3.6523438 C 2113.4248 0.37871816 2263.5502 0 2618.0078 0 L 3260 0 L 3260 3.6523438 z M 1865 2933.0078 C 1919.9999 2940.0078 2005.0078 2939.9922 2018.0078 2931.9922 C 2028.0078 2924.9922 2025.9961 2914.0039 2010.9961 2879.0039 C 1970.9961 2793.004 1990.0001 2696.0039 2055 2654.0039 C 2069 2645.0039 2120.9961 2627.0039 2170.9961 2614.0039 C 2381.9959 2559.004 2531.9962 2476.9999 2665.9961 2345 C 2731.996 2279.0001 2765.0039 2237.0078 2789.0039 2188.0078 C 2821.0039 2125.0079 2825.004 2120.0039 2874.0039 2104.0039 C 3024.0038 2054.004 3165.0039 1966.9999 3194.0039 1905 C 3226.0039 1839.0001 3227.0076 1840 3053.0078 1840 L 2895 1840 L 2898.0078 1768.0078 C 2913.0078 1457.0081 2746.0036 1094.9997 2439.0039 775 C 2346.004 678.0001 2341.9922 672.00773 2316.9922 588.00781 C 2262.9922 413.00799 2142.9921 212.99598 2021.9922 95.996094 C 1987.9922 62.996127 1966 49.003911 1955 54.003906 C 1938 60.0039 1937.9961 65.992329 1965.9961 206.99219 C 1985.9961 306.99209 2004.9922 519.99612 1996.9922 550.99609 C 1988.9922 580.99606 1957.9921 592.99612 1826.9922 615.99609 C 1623.9924 650.99606 1384.9958 640.00385 1135.9961 584.00391 C 1075.9962 571.00392 1024.9922 560 1021.9922 560 C 1006.9922 560 1081.9922 626.99613 1141.9922 665.99609 C 1335.992 795.99596 1733.0003 915.00003 2065 945 C 2211.9999 957.99999 2202.0001 951.99228 2255 1041.9922 C 2348.9999 1199.992 2374.0039 1333.0079 2329.0039 1428.0078 C 2298.0039 1491.0077 2260.0077 1512.0078 2183.0078 1508.0078 C 2131.0079 1505.0078 2112.0078 1497.9922 2068.0078 1466.9922 C 2003.0079 1422.9922 1873.9999 1318.9921 1725 1191.9922 C 1563.0002 1053.9923 1475.0076 1016.0039 1283.0078 1004.0039 C 1176.0079 998.00391 1174.0078 998.00393 1143.0078 1024.0039 C 1110.0078 1052.0039 1045.0039 1176.9923 1014.0039 1271.9922 L 995 1328.0078 L 890 1335 C 735.00016 1345 524.99992 1375.9961 445 1400.9961 C 407.00004 1412.9961 338.99996 1439.9922 295 1461.9922 C 214.00008 1502.9921 70 1597.0039 70 1609.0039 C 70 1616.0039 240.00399 1777.0001 324.00391 1850 C 424.00381 1934.9999 827.00002 2230 845 2230 C 849 2230 864.00783 2238.0039 878.00781 2249.0039 C 893.0078 2259.0039 960.00788 2299.0079 1028.0078 2338.0078 C 1138.0077 2401.0077 1157.0079 2415.9922 1203.0078 2476.9922 C 1393.0076 2728.9919 1646.0002 2903.0078 1865 2933.0078 z M 1831.9922 2839.0039 C 1816.9922 2839.0039 1780.0078 2830.9961 1748.0078 2820.9961 C 1586.008 2768.9961 1425.992 2633.0037 1286.9922 2429.0039 C 1237.9922 2357.004 1231.9999 2352.0039 1150 2314.0039 C 1103 2293.0039 999.99992 2232.0078 920 2178.0078 C 705.00022 2035.008 248.99218 1664.0078 241.99219 1628.0078 C 239.99219 1618.0078 253.99221 1600.9961 276.99219 1585.9961 C 318.99215 1556.9961 445.00788 1505.9922 508.00781 1491.9922 C 546.00777 1482.9922 548.99616 1483.9922 615.99609 1541.9922 C 708.996 1620.9921 861.00008 1722.9961 945 1760.9961 C 1029.9999 1798.9961 1147.9962 1830 1210.9961 1830 C 1379.9959 1830 1532.0079 1737.0037 1628.0078 1574.0039 C 1675.0078 1495.004 1677.9961 1485 1650.9961 1500 C 1621.9961 1515 1620 1513.0039 1620 1474.0039 C 1620 1423.004 1594 1326.996 1560 1255.9961 C 1544 1222.9961 1533 1193.9922 1535 1191.9922 C 1542 1183.9922 1629.0078 1250.9961 1663.0078 1290.9961 C 1718.0078 1354.996 1735 1397.0001 1735 1470 C 1735 1506 1730.9922 1545.0078 1726.9922 1558.0078 C 1713.9922 1592.0078 1744.0039 1586.0078 1774.0039 1548.0078 L 1799.0039 1515 L 1906.9922 1621.9922 C 2071.992 1785.992 2184.9963 1866.004 2345.9961 1934.0039 C 2480.996 1991.0038 2558.0002 2005.0039 2715 2004.0039 C 2835.9999 2004.0039 2867.0001 2000.0078 2940 1978.0078 C 2987 1963.0078 3027.0078 1953 3028.0078 1955 C 3036.0078 1963 2929.9999 2009 2855 2030 C 2688.0002 2078 2468.992 2053.9999 2266.9922 1965 C 2221.9922 1945 2178 1926.0078 2170 1923.0078 C 2144 1913.0078 2233.0079 1999.9922 2288.0078 2036.9922 C 2316.0078 2056.9922 2340 2079 2340 2085 C 2340 2100 2278.0039 2157.0078 2229.0039 2188.0078 C 2194.0039 2209.0078 2069 2260 2050 2260 C 2045 2260 2047.0039 2245.0078 2054.0039 2228.0078 C 2068.0039 2194.0078 2081.9961 2130 2075.9961 2130 C 2073.9961 2130 2060.9961 2148 2045.9961 2170 C 2023.9961 2204 1931.9922 2270 1906.9922 2270 C 1902.9922 2270 1911.0039 2253.0078 1924.0039 2233.0078 C 1948.0039 2197.0078 1982.0039 2089.9961 1974.0039 2080.9961 C 1971.0039 2077.9961 1962.0078 2086.9961 1953.0078 2100.9961 C 1902.0079 2175.996 1798.9999 2247.0039 1715 2264.0039 L 1685 2270 L 1710 2251.9922 C 1769.9999 2209.9922 1811 2164.0078 1840 2108.0078 C 1856 2074.0078 1870 2039.9922 1870 2031.9922 C 1870 2023.9922 1843.9961 2041.9922 1810.9961 2071.9922 C 1699.9962 2174.9921 1573.992 2212.9961 1431.9922 2185.9961 C 1355.9923 2171.9961 1215 2112.9961 1215 2095.9961 C 1215 2090.9961 1233 2077.9961 1255 2065.9961 C 1345.9999 2015.9961 1344.0039 2018.0039 1329.0039 2009.0039 C 1321.0039 2004.0039 1298.0078 2000 1278.0078 2000 C 1228.0079 2000 1188.9961 1983.9922 1195.9961 1966.9922 C 1198.9961 1958.9922 1193.0078 1947 1183.0078 1940 C 1168.0078 1928 1166.9922 1928.0039 1176.9922 1939.0039 C 1183.9922 1947.0039 1186.0078 1964.9961 1183.0078 1980.9961 C 1179.0078 2001.9961 1183.0039 2011.0039 1199.0039 2019.0039 C 1226.0039 2034.0039 1226.0039 2051.0078 1199.0039 2073.0078 C 1187.0039 2084.0078 1181 2098.0039 1185 2109.0039 C 1191 2129.0039 1166.9961 2154.9961 1150.9961 2145.9961 C 1135.9961 2136.9961 1110 2151.0078 1110 2168.0078 C 1110 2181.0078 1112.0078 2181 1123.0078 2165 C 1136.0078 2148 1141.9962 2149.9922 1225.9961 2201.9922 C 1340.996 2272.9921 1402.004 2303.9922 1514.0039 2346.9922 C 1835.0036 2470.9921 2190.0081 2466.996 2448.0078 2335.9961 C 2476.0078 2321.9961 2500 2314.0039 2500 2319.0039 C 2500 2336.0039 2380.0038 2419 2304.0039 2455 C 2211.004 2499 2084.9921 2530 1996.9922 2530 C 1935.9922 2530 1927.0039 2533.0078 1904.0039 2558.0078 C 1889.0039 2573.0078 1871.0078 2598 1863.0078 2615 C 1843.0078 2653 1835.0078 2755.0079 1848.0078 2803.0078 C 1858.0078 2839.0078 1857.9922 2840.0039 1831.9922 2839.0039 z M 1064.2578 2179.5117 C 1066.7671 2179.6985 1066.9453 2174.5625 1063.0078 2165 C 1060.0078 2156 1055.0078 2151.0039 1053.0078 2154.0039 C 1050.0078 2157.0039 1051 2163.0039 1055 2169.0039 C 1058.9375 2176.0039 1062.3062 2179.3665 1064.2578 2179.5117 z M 1019.043 2154.1602 C 1021.6211 2154.1289 1023.9961 2153.7578 1025.9961 2153.0078 C 1045.9961 2145.0078 1035.0039 2137 1004.0039 2135 C 982.00393 2134 981.00001 2135.9961 995 2145.9961 C 1001.75 2151.2461 1011.3086 2154.2539 1019.043 2154.1602 z M 972.87109 2118.8281 C 973.96826 2118.97 976.6211 2116.9453 980.99609 2113.0078 C 987.99609 2106.0078 991.00781 2098 988.00781 2095 C 985.00782 2092 978.99609 2096.9922 975.99609 2106.9922 C 972.6211 2114.8672 971.46045 2118.6458 972.87109 2118.8281 z M 1106.9922 2110 C 1118.9922 2110 1155.0078 2072 1148.0078 2065 C 1146.0078 2062 1133 2071 1120 2085 C 1107 2099 1100.9922 2110 1106.9922 2110 z M 1045.9961 2100 C 1047.9961 2100 1050 2096 1050 2090 C 1050 2085 1045.0039 2080 1039.0039 2080 C 1034.0039 2080 1032 2085 1035 2090 C 1038 2096 1042.9961 2100 1045.9961 2100 z M 953.86719 2066.875 C 954.99219 2067.5 956.00781 2060 958.00781 2045 C 960.00781 2029 968.9922 2011.0039 976.99219 2004.0039 C 985.99218 1998.0039 990.99218 1985.9922 986.99219 1976.9922 C 980.99219 1961.9922 1003.0039 1936.0039 1024.0039 1934.0039 C 1030.0039 1934.0039 1041.0078 1931.9922 1048.0078 1931.9922 C 1054.0078 1930.9922 1060 1922.0078 1060 1913.0078 C 1060 1898.0078 1058.9922 1898.0039 1046.9922 1914.0039 C 1034.9922 1931.0039 1026.0038 1929 899.00391 1880 C 826.00398 1851 738.99606 1817.0078 705.99609 1803.0078 C 673.99613 1790.0078 646.0039 1781.0078 644.00391 1783.0078 C 641.00391 1785.0078 707.99227 1835.9962 791.99219 1895.9961 C 931.99205 1996.996 945.00391 2009 949.00391 2040 C 951.5039 2057.5 952.74219 2066.25 953.86719 2066.875 z M 1023.4766 2065.3711 C 1025.2849 2065.6304 1028.3789 2053.4297 1034.0039 2026.9922 C 1038.0039 2010.9922 1049.9922 1995.9961 1061.9922 1990.9961 C 1075.9922 1985.9961 1078.9922 1980.9961 1071.9922 1975.9961 C 1052.9922 1963.9961 1019.9961 2007.0078 1020.9961 2043.0078 C 1021.4336 2057.4453 1022.0701 2065.1694 1023.4766 2065.3711 z M 1144.9023 2015.9766 C 1146.1836 2016.0703 1147.2578 2015.75 1148.0078 2015 C 1151.0078 2013 1147 2004 1140 1995 C 1133 1986 1124.9922 1982 1121.9922 1985 C 1118.9922 1987 1123 1996 1130 2005 C 1135.25 2011.75 1141.0586 2015.6953 1144.9023 2015.9766 z M 1094.0039 1990 C 1097.0039 1990 1102 1986 1105 1980 C 1108 1975 1105.9961 1970 1100.9961 1970 C 1094.9961 1970 1090 1975 1090 1980 C 1090 1986 1092.0039 1990 1094.0039 1990 z M 1136.3281 1940.2539 C 1142.4219 1940.1563 1151.25 1936.25 1155 1930 C 1158 1924 1153.9961 1922.9961 1145.9961 1925.9961 C 1136.9961 1928.9961 1130 1933.9961 1130 1935.9961 C 1130 1938.9961 1132.6719 1940.3125 1136.3281 1940.2539 z M 1114.3359 1928.2227 C 1114.8721 1928.1428 1115.4336 1927.7422 1115.9961 1926.9922 C 1118.9961 1923.9922 1119.9922 1915.0078 1116.9922 1908.0078 C 1113.9922 1900.0078 1110.9961 1903.0039 1110.9961 1914.0039 C 1110.1836 1922.9414 1112.0127 1928.5686 1114.3359 1928.2227 z M 1145 1716.9922 C 1018.0001 1718.9922 848.99989 1641.996 735 1530.9961 C 705.00003 1501.9961 680 1474.0039 680 1469.0039 C 680 1464.0039 712.00004 1460 750 1460 C 788.99996 1460 820 1464.0078 820 1468.0078 C 820 1473.0078 810.99999 1485 800 1495 C 767.00003 1525 781.00788 1533.9961 853.00781 1530.9961 C 890.00778 1529.9961 920 1531.0078 920 1533.0078 C 920 1536.0078 912.99999 1549.9961 905 1565.9961 C 885.00002 1604.9961 897.99616 1612.9922 960.99609 1601.9922 C 990.99606 1595.9922 1017.0039 1592.9961 1019.0039 1595.9961 C 1021.0039 1597.9961 1017 1613.0039 1010 1629.0039 C 994.00002 1668.0039 1002.9961 1682 1035.9961 1670 C 1049.9961 1664 1076.0039 1660 1094.0039 1660 C 1124.0039 1660 1127.0078 1663.0039 1123.0078 1684.0039 C 1119.0078 1706.0039 1121.9961 1709.0078 1150.9961 1713.0078 C 1182.9961 1716.0078 1182 1716.9922 1145 1716.9922 z M 2291.7578 1628.2422 C 2286.2578 1625.9922 2296.4922 1616.9961 2321.9922 1600.9961 C 2394.9921 1553.9961 2444.0078 1478.0038 2453.0078 1394.0039 C 2460.0078 1325.004 2441.0039 1188.0077 2414.0039 1118.0078 C 2400.0039 1081.0078 2371.0039 1023.0039 2349.0039 989.00391 C 2327.0039 955.00394 2311.9961 924.99609 2315.9961 920.99609 C 2327.9961 908.99611 2420.9961 1026.0001 2460.9961 1105 C 2510.996 1205.9999 2526.9961 1296.0079 2510.9961 1393.0078 C 2489.9961 1517.0077 2438.996 1591 2355.9961 1615 C 2318.4961 1626 2297.2578 1630.4922 2291.7578 1628.2422 z M 1518.0078 1409.0039 C 1514.0078 1422.0039 1450 1336.9922 1450 1316.9922 C 1450 1308.9922 1435.0078 1289.0039 1418.0078 1274.0039 C 1400.0078 1259.0039 1386.0078 1241.0078 1388.0078 1233.0078 C 1390.0078 1225.0078 1370 1209.9961 1340 1195.9961 C 1312 1182.9961 1294.9922 1169.9922 1301.9922 1166.9922 C 1320.9922 1159.9922 1298.9921 1138.9922 1246.9922 1116.9922 L 1205 1099.0039 L 1265 1105 C 1307 1109 1331.0078 1117.0078 1348.0078 1133.0078 C 1394.0078 1175.0078 1460.9961 1270.0001 1490.9961 1335 C 1507.9961 1370 1520.0078 1404.0039 1518.0078 1409.0039 z " />
  </g>
</svg>
